<svg id="Layer_1" enable-background="new 0 0 512 512" height="512" viewBox="0 0 512 512" width="512" xmlns="http://www.w3.org/2000/svg"><g><g><g><g><path d="m403.496 168.06h40.363c18.263 0 34.206 12.375 38.736 30.067 6.476 25.291-12.628 49.904-38.736 49.904h-20.363 40.84c18.263 0 34.206 12.374 38.736 30.067l.183.713c6.493 25.357-12.723 50.009-38.898 49.904-9.732-.039-20.107-.069-30.439-.08-44.183-.047-114.009-.093-144.145-.093v141.118c0 35.59-49.125 48.343-66.636 17.23l-103.103-211.614v-207.93l28.579-26.481c23.436-21.413 54.122-33.299 85.972-33.299 63.262 0 119.887.255 168.052.083 18.32-.065 34.34 12.319 38.884 30.066l.12.468c6.476 25.291-12.628 49.904-38.736 49.904h-9.409 29.886c18.263 0 34.206 12.375 38.736 30.067 6.476 25.291-12.628 49.904-38.736 49.904h-19.886z" fill="#ffdbd3"/><g fill="#ffd1c7"><path d="m249.773 469.659v-141.118c9.852 0 23.947.005 40 .013v141.104c0 29.822-34.492 43.609-55.975 28.99 9.303-5.86 15.975-15.874 15.975-28.989z"/><path d="m390.555 81.274c-.061-2.536.839-4.996 2.504-6.91 8.234-9.467 12.027-22.727 8.582-36.179l-.12-.468c-4.351-16.994-19.224-29.069-36.562-30.007 13.074 0 25.647-.016 37.69-.059 18.317-.065 34.329 12.322 38.872 30.066l.12.468c6.476 25.291-12.628 49.904-38.736 49.904h20.703c18.214 0 34.092 12.396 38.509 30.067 6.476 25.291-12.628 49.904-38.736 49.904h20.477c18.263 0 34.206 12.375 38.736 30.067 6.476 25.291-12.628 49.904-38.736 49.904h20.477c18.264 0 34.207 12.376 38.736 30.069l.182.711c6.491 25.358-12.725 50.009-38.9 49.904-9.732-.039-20.106-.07-30.436-.08-2.178-.002-4.419-.005-6.714-.007 24.701-1.615 42.306-25.388 36.051-49.816l-.183-.713c-4.529-17.692-20.471-30.067-38.733-30.067h-5.598v-2.844c17.93-7.179 29.016-26.904 23.855-47.06-4.53-17.693-20.472-30.067-38.736-30.067h-2.473l-.027-4.241c16.084-8.108 25.616-26.694 20.759-45.663-3.348-13.076-12.93-23.247-25.074-27.665-3.857-1.404-6.39-5.116-6.489-9.218z"/></g><g><g><g><path d="m67.736 7.522c-33.254 0-60.211 26.958-60.211 60.211v207.066c0 33.254 26.958 60.211 60.211 60.211 33.254 0 60.211-26.958 60.211-60.211v-207.065c.001-33.254-26.957-60.212-60.211-60.212z" fill="#ff8ccc"/><path d="m67.736 335.011c-7.011 0-13.742-1.198-20-3.401 23.423-8.246 40.211-30.567 40.211-56.81v-207.066c0-26.243-16.789-48.564-40.211-56.81 6.258-2.203 12.989-3.401 20-3.401 33.254 0 60.211 26.958 60.211 60.211v207.066c.001 33.253-26.957 60.211-60.211 60.211z" fill="#ff78c2"/><ellipse cx="67.736" cy="69.185" fill="#fff" rx="21.07" ry="20.919"/></g></g></g></g><g><ellipse cx="396.44" cy="435.203" fill="#ff8ccc" rx="69.149" ry="69.297"/></g></g></g><g><path d="m396.439 358.406c-42.265 0-76.649 34.451-76.649 76.797s34.385 76.797 76.649 76.797c42.265 0 76.65-34.451 76.65-76.797s-34.385-76.797-76.65-76.797zm0 138.594c-33.994 0-61.649-27.722-61.649-61.797s27.656-61.797 61.649-61.797 61.65 27.722 61.65 61.797-27.656 61.797-61.65 61.797z"/><path d="m396.439 441.596c-11.618 0-22.544 4.539-30.768 12.779-2.926 2.932-2.92 7.681.012 10.606 2.931 2.925 7.68 2.921 10.606-.012 5.389-5.4 12.544-8.374 20.149-8.374s14.761 2.974 20.15 8.374c1.465 1.468 3.387 2.203 5.309 2.203 1.917 0 3.833-.73 5.297-2.191 2.932-2.926 2.938-7.675.012-10.606-8.222-8.241-19.149-12.779-30.767-12.779z"/><path d="m383.985 433.794c2.597 0 5.123-1.351 6.509-3.765 2.064-3.591.826-8.176-2.766-10.239l-19.706-11.325c-3.59-2.063-8.175-.826-10.239 2.766s-.826 8.176 2.766 10.239l19.706 11.325c1.177.678 2.462.999 3.73.999z"/><path d="m424.855 408.466-19.705 11.325c-3.591 2.064-4.829 6.648-2.765 10.24 1.387 2.414 3.912 3.764 6.509 3.764 1.268 0 2.553-.322 3.73-.999l19.705-11.325c3.591-2.064 4.829-6.648 2.765-10.24-2.063-3.592-6.649-4.83-10.239-2.765z"/><path d="m510.52 276.929c-4.033-16.695-17.077-30.219-33.662-34.747 12.156-11.801 17.207-29.515 13.002-45.938-4.313-16.846-17.317-29.621-33.479-34.033 12.156-11.801 17.207-29.516 13.002-45.938-4.313-16.846-17.317-29.621-33.479-34.033 12.155-11.8 17.207-29.514 13.002-45.936-5.502-20.882-24.284-36.176-46.125-36.176-56.066 0-112.131-.083-168.197-.083-33.815 0-66.144 12.523-91.07 35.297l-11.604 10.753c-9.041-26.769-34.393-46.095-64.174-46.095-37.336 0-67.711 30.375-67.711 67.711v207.065c0 37.336 30.375 67.711 67.711 67.711 25.633 0 47.984-14.317 59.478-35.374l89.18 183.037c8.572 17.531 30.495 25.093 48.637 20.34 19.586-5.133 32.242-21.17 32.242-40.855v-24.661c0-4.142-3.358-7.5-7.5-7.5s-7.5 3.358-7.5 7.5v24.661c0 15.375-11.337 23.801-21.045 26.345-9.748 2.554-23.803.771-31.452-12.61-16.213-33.277-95.517-195.927-95.517-195.927.78-4.105 1.188-8.339 1.188-12.667v-135.797c0-9.697-15-9.697-15 0v135.798c0 29.065-23.646 52.711-52.711 52.711s-52.711-23.646-52.711-52.711v-207.066c0-29.065 23.646-52.711 52.711-52.711s52.711 23.646 52.711 52.711v31.3c0 9.697 15 9.697 15 0 0-11.821.61-23.815-.136-35.618l18.361-17.013c22.116-20.207 50.851-31.335 80.913-31.335 56.065 0 112.131.083 168.196.083 14.879 0 28.09 10.451 31.594 24.895 5.183 20.242-10.576 40.543-31.47 40.543h-9.409c-4.142 0-7.5 3.358-7.5 7.5s3.358 7.5 7.5 7.5h29.886c14.847 0 27.788 10.045 31.47 24.427 5.183 20.242-10.575 40.544-31.47 40.544h-19.886c-4.142 0-7.5 3.358-7.5 7.5s3.358 7.5 7.5 7.5h40.363c14.847 0 27.788 10.045 31.47 24.427 5.183 20.242-10.576 40.543-31.47 40.543h-20.363c-4.142 0-7.5 3.358-7.5 7.5s3.358 7.5 7.5 7.5h40.84c14.977 0 28.22 10.592 31.653 25.141 5.13 20.034-10.816 40.771-31.602 40.543-58.204-.233-116.41-.173-174.614-.173-4.142 0-7.5 3.358-7.5 7.5v77.694c0 4.142 3.358 7.5 7.5 7.5s7.5-3.358 7.5-7.5v-70.192c55.684.01 111.37-.051 167.054.172 30.561 0 53.803-29.542 46.193-59.263z"/><path d="m39.166 69.163c0 15.67 12.816 28.419 28.57 28.419s28.57-12.749 28.57-28.419-12.816-28.419-28.57-28.419-28.57 12.748-28.57 28.419zm42.14 0c0 7.399-6.087 13.419-13.57 13.419s-13.57-6.02-13.57-13.419 6.087-13.419 13.57-13.419 13.57 6.019 13.57 13.419z"/></g></g></svg>